<svg data-v-fde0c5aa="" xmlns="http://www.w3.org/2000/svg" viewBox="0 0 300 300" class="font"><!----><defs data-v-fde0c5aa=""><!----></defs><rect data-v-fde0c5aa="" fill="transparent" x="0" y="0" width="300px" height="300px" class="logo-background-square"></rect><defs data-v-fde0c5aa=""><linearGradient data-v-fde0c5aa="" gradientTransform="rotate(25)" id="0658b515-6d57-4438-b5ce-4a3aa96f01dd" x1="0%" y1="0%" x2="100%" y2="0%"><stop data-v-fde0c5aa="" offset="0%" stop-color="#288642" stop-opacity="1"></stop><stop data-v-fde0c5aa="" offset="100%" stop-color="#27FDFD" stop-opacity="1"></stop></linearGradient></defs><g data-v-fde0c5aa="" id="d6126453-c54e-40f6-9688-bef39da3cdb0" fill="url(#0658b515-6d57-4438-b5ce-4a3aa96f01dd)" transform="matrix(2.3778643318453594,0,0,2.3778643318453594,39.71465626884002,125.88845599256719)"><path d="M2.98 14.71L2.98 14.71L2.98 14.71Q3.25 14.71 3.52 14.61L3.52 14.61L3.52 14.61Q3.79 14.51 4.00 14.28L4.00 14.28L4.00 14.28Q4.20 14.05 4.33 13.69L4.33 13.69L4.33 13.69Q4.46 13.32 4.46 12.78L4.46 12.78L4.46 12.78Q4.46 12.21 4.18 11.67L4.18 11.67L4.18 11.67Q3.90 11.13 3.47 10.61L3.47 10.61L3.47 10.61Q3.04 10.08 2.55 9.57L2.55 9.57L2.55 9.57Q2.05 9.05 1.62 8.51L1.62 8.51L1.62 8.51Q1.20 7.98 0.91 7.41L0.91 7.41L0.91 7.41Q0.63 6.84 0.63 6.21L0.63 6.21L0.63 6.21Q0.63 5.59 0.86 5.09L0.86 5.09L0.86 5.09Q1.09 4.59 1.48 4.23L1.48 4.23L1.48 4.23Q1.87 3.88 2.40 3.69L2.40 3.69L2.40 3.69Q2.92 3.50 3.51 3.50L3.51 3.50L3.51 3.50Q4.15 3.50 4.65 3.63L4.65 3.63L4.65 3.63Q5.14 3.77 5.49 4.00L5.49 4.00L5.49 4.00Q5.83 4.22 6.01 4.54L6.01 4.54L6.01 4.54Q6.19 4.85 6.19 5.20L6.19 5.20L6.19 5.20Q6.19 5.36 6.14 5.53L6.14 5.53L6.14 5.53Q6.09 5.71 5.99 5.85L5.99 5.85L5.99 5.85Q5.89 6.00 5.73 6.09L5.73 6.09L5.73 6.09Q5.57 6.19 5.36 6.19L5.36 6.19L5.36 6.19Q5.11 6.19 4.99 6.03L4.99 6.03L4.99 6.03Q4.87 5.88 4.81 5.65L4.81 5.65L4.81 5.65Q4.75 5.43 4.71 5.16L4.71 5.16L4.71 5.16Q4.67 4.89 4.58 4.66L4.58 4.66L4.58 4.66Q4.49 4.44 4.31 4.28L4.31 4.28L4.31 4.28Q4.14 4.13 3.79 4.13L3.79 4.13L3.79 4.13Q3.61 4.13 3.43 4.21L3.43 4.21L3.43 4.21Q3.25 4.29 3.10 4.46L3.10 4.46L3.10 4.46Q2.95 4.63 2.86 4.89L2.86 4.89L2.86 4.89Q2.78 5.15 2.78 5.50L2.78 5.50L2.78 5.50Q2.78 5.91 2.95 6.30L2.95 6.30L2.95 6.30Q3.12 6.69 3.40 7.07L3.40 7.07L3.40 7.07Q3.68 7.45 4.04 7.83L4.04 7.83L4.04 7.83Q4.40 8.21 4.77 8.60L4.77 8.60L4.77 8.60Q5.14 8.98 5.50 9.39L5.50 9.39L5.50 9.39Q5.86 9.80 6.14 10.23L6.14 10.23L6.14 10.23Q6.42 10.67 6.59 11.15L6.59 11.15L6.59 11.15Q6.76 11.63 6.76 12.15L6.76 12.15L6.76 12.15Q6.76 12.93 6.46 13.53L6.46 13.53L6.46 13.53Q6.17 14.14 5.66 14.55L5.66 14.55L5.66 14.55Q5.15 14.96 4.46 15.18L4.46 15.18L4.46 15.18Q3.78 15.40 3.01 15.40L3.01 15.40L3.01 15.40Q2.31 15.40 1.77 15.23L1.77 15.23L1.77 15.23Q1.24 15.05 0.87 14.77L0.87 14.77L0.87 14.77Q0.50 14.48 0.31 14.11L0.31 14.11L0.31 14.11Q0.12 13.75 0.12 13.36L0.12 13.36L0.12 13.36Q0.12 13.19 0.17 13.01L0.17 13.01L0.17 13.01Q0.23 12.82 0.32 12.66L0.32 12.66L0.32 12.66Q0.42 12.50 0.57 12.40L0.57 12.40L0.57 12.40Q0.72 12.29 0.92 12.29L0.92 12.29L0.92 12.29Q1.13 12.29 1.25 12.39L1.25 12.39L1.25 12.39Q1.38 12.50 1.46 12.67L1.46 12.67L1.46 12.67Q1.53 12.84 1.58 13.06L1.58 13.06L1.58 13.06Q1.63 13.28 1.68 13.50L1.68 13.50L1.68 13.50Q1.74 13.73 1.82 13.95L1.82 13.95L1.82 13.95Q1.90 14.16 2.04 14.33L2.04 14.33L2.04 14.33Q2.19 14.51 2.41 14.61L2.41 14.61L2.41 14.61Q2.64 14.71 2.98 14.71ZM16.24 8.79L16.24 8.79L16.24 8.79Q16.24 8.34 16.18 8.05L16.18 8.05L16.18 8.05Q16.12 7.75 16.05 7.56L16.05 7.56L16.05 7.56Q15.98 7.36 15.91 7.24L15.91 7.24L15.91 7.24Q15.85 7.11 15.85 7L15.85 7L15.85 7Q15.85 6.90 15.93 6.83L15.93 6.83L15.93 6.83Q16.02 6.76 16.13 6.71L16.13 6.71L16.13 6.71Q16.24 6.67 16.36 6.64L16.36 6.64L16.36 6.64Q16.48 6.62 16.56 6.62L16.56 6.62L16.56 6.62Q16.75 6.62 16.84 6.68L16.84 6.68L16.84 6.68Q16.93 6.73 16.99 6.89L16.99 6.89L16.99 6.89Q17.05 7.09 17.07 7.41L17.07 7.41L17.07 7.41Q17.10 7.74 17.10 8.11L17.10 8.11L17.10 8.11Q17.10 8.63 17.04 9.26L17.04 9.26L17.04 9.26Q16.97 9.89 16.84 10.53L16.84 10.53L16.84 10.53Q16.71 11.16 16.50 11.76L16.50 11.76L16.50 11.76Q16.29 12.35 16.00 12.81L16.00 12.81L16.00 12.81Q15.70 13.28 15.32 13.55L15.32 13.55L15.32 13.55Q14.94 13.83 14.45 13.83L14.45 13.83L14.45 13.83Q14.07 13.83 13.76 13.68L13.76 13.68L13.76 13.68Q13.46 13.52 13.22 13.25L13.22 13.25L13.22 13.25Q12.98 12.99 12.80 12.63L12.80 12.63L12.80 12.63Q12.62 12.27 12.48 11.86L12.48 11.86L12.48 11.86Q12.33 12.28 12.12 12.64L12.12 12.64L12.12 12.64Q11.92 13.00 11.67 13.26L11.67 13.26L11.67 13.26Q11.42 13.53 11.12 13.68L11.12 13.68L11.12 13.68Q10.81 13.83 10.47 13.83L10.47 13.83L10.47 13.83Q10.04 13.83 9.70 13.64L9.70 13.64L9.70 13.64Q9.37 13.45 9.12 13.13L9.12 13.13L9.12 13.13Q8.87 12.80 8.68 12.37L8.68 12.37L8.68 12.37Q8.50 11.94 8.36 11.46L8.36 11.46L8.36 11.46Q8.23 10.99 8.14 10.48L8.14 10.48L8.14 10.48Q8.05 9.97 7.99 9.50L7.99 9.50L7.99 9.50Q7.93 9.03 7.89 8.62L7.89 8.62L7.89 8.62Q7.85 8.21 7.81 7.91L7.81 7.91L7.81 7.91Q7.76 7.64 7.67 7.49L7.67 7.49L7.67 7.49Q7.57 7.33 7.36 7.33L7.36 7.33L7.36 7.33Q7.24 7.33 7.16 7.38L7.16 7.38L7.16 7.38Q7.08 7.42 6.98 7.49L6.98 7.49L6.84 7.32L6.84 7.32Q6.99 7.19 7.19 7.06L7.19 7.06L7.19 7.06Q7.38 6.94 7.61 6.84L7.61 6.84L7.61 6.84Q7.83 6.75 8.09 6.69L8.09 6.69L8.09 6.69Q8.35 6.62 8.64 6.62L8.64 6.62L8.64 6.62Q9.05 6.62 9.30 6.76L9.30 6.76L9.30 6.76Q9.56 6.90 9.70 7.11L9.70 7.11L9.70 7.11Q9.85 7.32 9.91 7.56L9.91 7.56L9.91 7.56Q9.97 7.80 10.00 7.99L10.00 7.99L10.00 7.99Q10.12 9.02 10.24 9.81L10.24 9.81L10.24 9.81Q10.36 10.60 10.50 11.13L10.50 11.13L10.50 11.13Q10.64 11.66 10.80 11.93L10.80 11.93L10.80 11.93Q10.96 12.20 11.18 12.20L11.18 12.20L11.18 12.20Q11.32 12.20 11.46 12.07L11.46 12.07L11.46 12.07Q11.59 11.95 11.72 11.73L11.72 11.73L11.72 11.73Q11.84 11.51 11.95 11.20L11.95 11.20L11.95 11.20Q12.06 10.89 12.14 10.51L12.14 10.51L12.14 10.51Q12.07 10.14 12.02 9.77L12.02 9.77L12.02 9.77Q11.98 9.40 11.94 9.06L11.94 9.06L11.94 9.06Q11.90 8.72 11.87 8.43L11.87 8.43L11.87 8.43Q11.83 8.13 11.79 7.91L11.79 7.91L11.79 7.91Q11.69 7.27 11.91 6.95L11.91 6.95L11.91 6.95Q12.13 6.62 12.80 6.62L12.80 6.62L12.80 6.62Q13.10 6.62 13.30 6.68L13.30 6.68L13.30 6.68Q13.50 6.73 13.63 6.87L13.63 6.87L13.63 6.87Q13.77 7.01 13.85 7.25L13.85 7.25L13.85 7.25Q13.93 7.49 13.98 7.87L13.98 7.87L13.98 7.87Q14.11 8.89 14.23 9.70L14.23 9.70L14.23 9.70Q14.36 10.51 14.49 11.06L14.49 11.06L14.49 11.06Q14.63 11.61 14.79 11.90L14.79 11.90L14.79 11.90Q14.95 12.20 15.17 12.20L15.17 12.20L15.17 12.20Q15.40 12.20 15.60 11.91L15.60 11.91L15.60 11.91Q15.80 11.62 15.94 11.15L15.94 11.15L15.94 11.15Q16.08 10.68 16.16 10.06L16.16 10.06L16.16 10.06Q16.24 9.45 16.24 8.79ZM21.44 11.85L21.44 10.18L21.44 10.18Q21.44 10.01 21.33 9.92L21.33 9.92L21.33 9.92Q21.22 9.83 21.05 9.83L21.05 9.83L21.05 9.83Q20.81 9.83 20.59 9.94L20.59 9.94L20.59 9.94Q20.38 10.05 20.21 10.26L20.21 10.26L20.21 10.26Q20.05 10.47 19.95 10.78L19.95 10.78L19.95 10.78Q19.86 11.09 19.86 11.50L19.86 11.50L19.86 11.50Q19.86 11.90 19.92 12.16L19.92 12.16L19.92 12.16Q19.97 12.42 20.07 12.57L20.07 12.57L20.07 12.57Q20.17 12.73 20.30 12.79L20.30 12.79L20.30 12.79Q20.43 12.85 20.58 12.85L20.58 12.85L20.58 12.85Q20.75 12.85 20.91 12.76L20.91 12.76L20.91 12.76Q21.07 12.67 21.18 12.52L21.18 12.52L21.18 12.52Q21.30 12.38 21.37 12.20L21.37 12.20L21.37 12.20Q21.44 12.02 21.44 11.85L21.44 11.85ZM20.35 7.18L20.35 7.18L20.35 7.18Q20.12 7.18 19.92 7.24L19.92 7.24L19.92 7.24Q19.72 7.29 19.58 7.38L19.58 7.38L19.58 7.38Q19.43 7.46 19.35 7.56L19.35 7.56L19.35 7.56Q19.27 7.66 19.27 7.75L19.27 7.75L19.27 7.75Q19.27 7.85 19.38 7.89L19.38 7.89L19.38 7.89Q19.48 7.94 19.61 7.99L19.61 7.99L19.61 7.99Q19.74 8.05 19.85 8.16L19.85 8.16L19.85 8.16Q19.95 8.26 19.95 8.48L19.95 8.48L19.95 8.48Q19.95 8.63 19.90 8.75L19.90 8.75L19.90 8.75Q19.84 8.87 19.74 8.96L19.74 8.96L19.74 8.96Q19.64 9.05 19.51 9.10L19.51 9.10L19.51 9.10Q19.37 9.15 19.23 9.15L19.23 9.15L19.23 9.15Q18.85 9.15 18.61 8.89L18.61 8.89L18.61 8.89Q18.38 8.63 18.38 8.20L18.38 8.20L18.38 8.20Q18.38 7.79 18.59 7.49L18.59 7.49L18.59 7.49Q18.81 7.19 19.16 7L19.16 7L19.16 7Q19.52 6.81 19.96 6.72L19.96 6.72L19.96 6.72Q20.41 6.62 20.85 6.62L20.85 6.62L20.85 6.62Q21.38 6.62 21.87 6.74L21.87 6.74L21.87 6.74Q22.35 6.86 22.73 7.11L22.73 7.11L22.73 7.11Q23.10 7.36 23.32 7.75L23.32 7.75L23.32 7.75Q23.54 8.14 23.54 8.70L23.54 8.70L23.54 12.56L23.54 12.56Q23.54 12.62 23.55 12.69L23.55 12.69L23.55 12.69Q23.56 12.77 23.58 12.83L23.58 12.83L23.58 12.83Q23.61 12.89 23.67 12.93L23.67 12.93L23.67 12.93Q23.72 12.97 23.82 12.97L23.82 12.97L23.82 12.97Q23.95 12.97 24.05 12.88L24.05 12.88L24.05 12.88Q24.16 12.79 24.24 12.69L24.24 12.69L24.41 12.84L24.41 12.84Q24.31 12.98 24.17 13.15L24.17 13.15L24.17 13.15Q24.02 13.32 23.82 13.47L23.82 13.47L23.82 13.47Q23.61 13.62 23.34 13.73L23.34 13.73L23.34 13.73Q23.06 13.83 22.72 13.83L22.72 13.83L22.72 13.83Q22.29 13.83 21.95 13.57L21.95 13.57L21.95 13.57Q21.62 13.32 21.51 12.78L21.51 12.78L21.51 12.78Q21.29 13.08 21.06 13.28L21.06 13.28L21.06 13.28Q20.82 13.47 20.58 13.60L20.58 13.60L20.58 13.60Q20.33 13.72 20.08 13.77L20.08 13.77L20.08 13.77Q19.83 13.83 19.58 13.83L19.58 13.83L19.58 13.83Q19.25 13.83 18.94 13.73L18.94 13.73L18.94 13.73Q18.63 13.62 18.39 13.40L18.39 13.40L18.39 13.40Q18.15 13.18 18.00 12.82L18.00 12.82L18.00 12.82Q17.86 12.47 17.86 11.96L17.86 11.96L17.86 11.96Q17.86 11.33 18.10 10.94L18.10 10.94L18.10 10.94Q18.35 10.54 18.75 10.27L18.75 10.27L18.75 10.27Q19.15 10.00 19.66 9.81L19.66 9.81L19.66 9.81Q20.17 9.62 20.70 9.41L20.70 9.41L20.70 9.41Q21.10 9.25 21.28 8.94L21.28 8.94L21.28 8.94Q21.46 8.63 21.46 8.30L21.46 8.30L21.46 8.30Q21.46 7.79 21.16 7.49L21.16 7.49L21.16 7.49Q20.86 7.18 20.35 7.18ZM28.41 11.85L28.41 10.18L28.41 10.18Q28.41 10.01 28.30 9.92L28.30 9.92L28.30 9.92Q28.19 9.83 28.02 9.83L28.02 9.83L28.02 9.83Q27.78 9.83 27.57 9.94L27.57 9.94L27.57 9.94Q27.35 10.05 27.19 10.26L27.19 10.26L27.19 10.26Q27.02 10.47 26.93 10.78L26.93 10.78L26.93 10.78Q26.83 11.09 26.83 11.50L26.83 11.50L26.83 11.50Q26.83 11.90 26.89 12.16L26.89 12.16L26.89 12.16Q26.95 12.42 27.05 12.57L27.05 12.57L27.05 12.57Q27.15 12.73 27.28 12.79L27.28 12.79L27.28 12.79Q27.41 12.85 27.55 12.85L27.55 12.85L27.55 12.85Q27.73 12.85 27.88 12.76L27.88 12.76L27.88 12.76Q28.04 12.67 28.16 12.52L28.16 12.52L28.16 12.52Q28.27 12.38 28.34 12.20L28.34 12.20L28.34 12.20Q28.41 12.02 28.41 11.85L28.41 11.85ZM27.32 7.18L27.32 7.18L27.32 7.18Q27.09 7.18 26.89 7.24L26.89 7.24L26.89 7.24Q26.69 7.29 26.55 7.38L26.55 7.38L26.55 7.38Q26.41 7.46 26.33 7.56L26.33 7.56L26.33 7.56Q26.24 7.66 26.24 7.75L26.24 7.75L26.24 7.75Q26.24 7.85 26.35 7.89L26.35 7.89L26.35 7.89Q26.46 7.94 26.58 7.99L26.58 7.99L26.58 7.99Q26.71 8.05 26.82 8.16L26.82 8.16L26.82 8.16Q26.93 8.26 26.93 8.48L26.93 8.48L26.93 8.48Q26.93 8.63 26.87 8.75L26.87 8.75L26.87 8.75Q26.81 8.87 26.71 8.96L26.71 8.96L26.71 8.96Q26.61 9.05 26.48 9.10L26.48 9.10L26.48 9.10Q26.35 9.15 26.20 9.15L26.20 9.15L26.20 9.15Q25.82 9.15 25.58 8.89L25.58 8.89L25.58 8.89Q25.35 8.63 25.35 8.20L25.35 8.20L25.35 8.20Q25.35 7.79 25.57 7.49L25.57 7.49L25.57 7.49Q25.79 7.19 26.14 7L26.14 7L26.14 7Q26.49 6.81 26.93 6.72L26.93 6.72L26.93 6.72Q27.38 6.62 27.82 6.62L27.82 6.62L27.82 6.62Q28.36 6.62 28.84 6.74L28.84 6.74L28.84 6.74Q29.33 6.86 29.70 7.11L29.70 7.11L29.70 7.11Q30.07 7.36 30.29 7.75L30.29 7.75L30.29 7.75Q30.52 8.14 30.52 8.70L30.52 8.70L30.52 12.56L30.52 12.56Q30.52 12.62 30.52 12.69L30.52 12.69L30.52 12.69Q30.53 12.77 30.56 12.83L30.56 12.83L30.56 12.83Q30.58 12.89 30.64 12.93L30.64 12.93L30.64 12.93Q30.69 12.97 30.80 12.97L30.80 12.97L30.80 12.97Q30.92 12.97 31.02 12.88L31.02 12.88L31.02 12.88Q31.13 12.79 31.21 12.69L31.21 12.69L31.38 12.84L31.38 12.84Q31.28 12.98 31.14 13.15L31.14 13.15L31.14 13.15Q30.99 13.32 30.79 13.47L30.79 13.47L30.79 13.47Q30.58 13.62 30.31 13.73L30.31 13.73L30.31 13.73Q30.04 13.83 29.69 13.83L29.69 13.83L29.69 13.83Q29.26 13.83 28.92 13.57L28.92 13.57L28.92 13.57Q28.59 13.32 28.49 12.78L28.49 12.78L28.49 12.78Q28.27 13.08 28.03 13.28L28.03 13.28L28.03 13.28Q27.79 13.47 27.55 13.60L27.55 13.60L27.55 13.60Q27.30 13.72 27.05 13.77L27.05 13.77L27.05 13.77Q26.80 13.83 26.55 13.83L26.55 13.83L26.55 13.83Q26.22 13.83 25.92 13.73L25.92 13.73L25.92 13.73Q25.61 13.62 25.36 13.40L25.36 13.40L25.36 13.40Q25.12 13.18 24.98 12.82L24.98 12.82L24.98 12.82Q24.83 12.47 24.83 11.96L24.83 11.96L24.83 11.96Q24.83 11.33 25.07 10.94L25.07 10.94L25.07 10.94Q25.32 10.54 25.72 10.27L25.72 10.27L25.72 10.27Q26.12 10.00 26.63 9.81L26.63 9.81L26.63 9.81Q27.14 9.62 27.67 9.41L27.67 9.41L27.67 9.41Q28.07 9.25 28.25 8.94L28.25 8.94L28.25 8.94Q28.43 8.63 28.43 8.30L28.43 8.30L28.43 8.30Q28.43 7.79 28.13 7.49L28.13 7.49L28.13 7.49Q27.84 7.18 27.32 7.18ZM36.10 10.01L36.10 10.01L36.10 10.01Q36.10 9.93 36.10 9.70L36.10 9.70L36.10 9.70Q36.10 9.47 36.09 9.18L36.09 9.18L36.09 9.18Q36.07 8.88 36.04 8.54L36.04 8.54L36.04 8.54Q36.00 8.21 35.93 7.92L35.93 7.92L35.93 7.92Q35.77 7.71 35.56 7.54L35.56 7.54L35.56 7.54Q35.36 7.38 35.05 7.38L35.05 7.38L35.05 7.38Q34.51 7.38 34.27 8.07L34.27 8.07L34.27 8.07Q34.02 8.77 34.02 10.23L34.02 10.23L34.02 10.23Q34.02 10.88 34.07 11.41L34.07 11.41L34.07 11.41Q34.13 11.94 34.25 12.33L34.25 12.33L34.25 12.33Q34.37 12.71 34.56 12.92L34.56 12.92L34.56 12.92Q34.75 13.13 35.01 13.13L35.01 13.13L35.01 13.13Q36.10 13.13 36.10 10.01ZM36.02 7L36.02 7L36.02 7Q35.89 6.32 35.66 5.73L35.66 5.73L35.66 5.73Q35.42 5.13 35.10 4.70L35.10 4.70L35.10 4.70Q34.77 4.27 34.36 4.03L34.36 4.03L34.36 4.03Q33.95 3.78 33.47 3.78L33.47 3.78L33.47 3.78Q33.20 3.78 32.97 3.85L32.97 3.85L32.97 3.85Q32.75 3.92 32.59 4.01L32.59 4.01L32.59 4.01Q32.42 4.10 32.32 4.19L32.32 4.19L32.32 4.19Q32.21 4.27 32.16 4.31L32.16 4.31L31.99 4.07L31.99 4.07Q32.15 3.86 32.39 3.68L32.39 3.68L32.39 3.68Q32.62 3.49 32.90 3.36L32.90 3.36L32.90 3.36Q33.18 3.23 33.49 3.16L33.49 3.16L33.49 3.16Q33.80 3.08 34.11 3.08L34.11 3.08L34.11 3.08Q35.12 3.08 35.89 3.52L35.89 3.52L35.89 3.52Q36.65 3.96 37.17 4.77L37.17 4.77L37.17 4.77Q37.68 5.58 37.94 6.72L37.94 6.72L37.94 6.72Q38.20 7.86 38.20 9.26L38.20 9.26L38.20 9.26Q38.20 10.38 37.97 11.24L37.97 11.24L37.97 11.24Q37.74 12.09 37.32 12.67L37.32 12.67L37.32 12.67Q36.89 13.25 36.29 13.54L36.29 13.54L36.29 13.54Q35.68 13.83 34.92 13.83L34.92 13.83L34.92 13.83Q34.40 13.83 33.85 13.64L33.85 13.64L33.85 13.64Q33.31 13.45 32.87 13.03L32.87 13.03L32.87 13.03Q32.43 12.61 32.15 11.92L32.15 11.92L32.15 11.92Q31.87 11.23 31.87 10.23L31.87 10.23L31.87 10.23Q31.87 9.37 32.11 8.70L32.11 8.70L32.11 8.70Q32.35 8.03 32.76 7.57L32.76 7.57L32.76 7.57Q33.17 7.11 33.71 6.87L33.71 6.87L33.71 6.87Q34.25 6.62 34.86 6.62L34.86 6.62L34.86 6.62Q35.09 6.62 35.27 6.66L35.27 6.66L35.27 6.66Q35.46 6.70 35.59 6.75L35.59 6.75L35.59 6.75Q35.73 6.81 35.83 6.87L35.83 6.87L35.83 6.87Q35.94 6.94 36.02 7ZM51.00 8.90L51.00 9.51L50.02 9.51L50.02 13.52L50.02 13.52Q50.02 14.45 49.70 15.15L49.70 15.15L49.70 15.15Q49.39 15.84 48.83 16.30L48.83 16.30L48.83 16.30Q48.26 16.76 47.49 16.99L47.49 16.99L47.49 16.99Q46.72 17.22 45.81 17.22L45.81 17.22L45.81 17.22Q45.46 17.22 45.14 17.16L45.14 17.16L45.14 17.16Q44.82 17.10 44.57 17.00L44.57 17.00L44.57 17.00Q44.32 16.90 44.18 16.76L44.18 16.76L44.18 16.76Q44.03 16.62 44.03 16.45L44.03 16.45L44.03 16.45Q44.03 16.32 44.06 16.20L44.06 16.20L44.06 16.20Q44.10 16.07 44.17 15.97L44.17 15.97L44.17 15.97Q44.24 15.87 44.33 15.80L44.33 15.80L44.33 15.80Q44.43 15.74 44.56 15.74L44.56 15.74L44.56 15.74Q44.64 15.74 44.69 15.81L44.69 15.81L44.69 15.81Q44.75 15.89 44.81 16.00L44.81 16.00L44.81 16.00Q44.87 16.11 44.95 16.24L44.95 16.24L44.95 16.24Q45.04 16.37 45.16 16.48L45.16 16.48L45.16 16.48Q45.28 16.59 45.46 16.67L45.46 16.67L45.46 16.67Q45.64 16.74 45.90 16.74L45.90 16.74L45.90 16.74Q46.43 16.74 46.83 16.55L46.83 16.55L46.83 16.55Q47.24 16.36 47.51 16.01L47.51 16.01L47.51 16.01Q47.78 15.67 47.92 15.19L47.92 15.19L47.92 15.19Q48.06 14.70 48.06 14.12L48.06 14.12L48.06 13.71L48.06 13.71Q47.77 13.77 47.48 13.80L47.48 13.80L47.48 13.80Q47.19 13.83 46.83 13.83L46.83 13.83L46.83 13.83Q45.90 13.83 45.08 13.55L45.08 13.55L45.08 13.55Q44.27 13.26 43.66 12.67L43.66 12.67L43.66 12.67Q43.06 12.07 42.71 11.15L42.71 11.15L42.71 11.15Q42.36 10.23 42.36 8.95L42.36 8.95L42.36 8.95Q42.36 8.06 42.55 7.31L42.55 7.31L42.55 7.31Q42.75 6.56 43.09 5.95L43.09 5.95L43.09 5.95Q43.43 5.35 43.90 4.89L43.90 4.89L43.90 4.89Q44.37 4.43 44.92 4.12L44.92 4.12L44.92 4.12Q45.47 3.81 46.08 3.66L46.08 3.66L46.08 3.66Q46.69 3.50 47.32 3.50L47.32 3.50L47.32 3.50Q47.91 3.50 48.43 3.61L48.43 3.61L48.43 3.61Q48.94 3.73 49.32 3.94L49.32 3.94L49.32 3.94Q49.70 4.16 49.92 4.47L49.92 4.47L49.92 4.47Q50.13 4.79 50.13 5.20L50.13 5.20L50.13 5.20Q50.13 5.38 50.07 5.58L50.07 5.58L50.07 5.58Q50.00 5.78 49.88 5.95L49.88 5.95L49.88 5.95Q49.76 6.12 49.57 6.22L49.57 6.22L49.57 6.22Q49.38 6.33 49.14 6.33L49.14 6.33L49.14 6.33Q48.84 6.33 48.70 6.16L48.70 6.16L48.70 6.16Q48.56 6.00 48.49 5.75L48.49 5.75L48.49 5.75Q48.42 5.50 48.38 5.21L48.38 5.21L48.38 5.21Q48.35 4.92 48.27 4.67L48.27 4.67L48.27 4.67Q48.19 4.42 48.02 4.26L48.02 4.26L48.02 4.26Q47.85 4.09 47.53 4.09L47.53 4.09L47.53 4.09Q47.29 4.09 46.99 4.20L46.99 4.20L46.99 4.20Q46.69 4.32 46.38 4.57L46.38 4.57L46.38 4.57Q46.07 4.82 45.78 5.21L45.78 5.21L45.78 5.21Q45.48 5.59 45.25 6.13L45.25 6.13L45.25 6.13Q45.02 6.67 44.88 7.37L44.88 7.37L44.88 7.37Q44.74 8.07 44.74 8.95L44.74 8.95L44.74 8.95Q44.74 9.92 44.86 10.61L44.86 10.61L44.86 10.61Q44.99 11.29 45.19 11.75L45.19 11.75L45.19 11.75Q45.39 12.22 45.65 12.49L45.65 12.49L45.65 12.49Q45.92 12.76 46.20 12.89L46.20 12.89L46.20 12.89Q46.48 13.03 46.75 13.07L46.75 13.07L46.75 13.07Q47.03 13.10 47.26 13.10L47.26 13.10L47.26 13.10Q47.50 13.10 47.70 13.07L47.70 13.07L47.70 13.07Q47.90 13.03 48.06 12.96L48.06 12.96L48.06 9.51L46.85 9.51L46.85 8.90L51.00 8.90ZM54.11 4.21L54.11 7.92L54.11 7.92Q54.36 7.56 54.68 7.27L54.68 7.27L54.68 7.27Q54.81 7.15 54.97 7.03L54.97 7.03L54.97 7.03Q55.13 6.92 55.31 6.83L55.31 6.83L55.31 6.83Q55.49 6.73 55.70 6.68L55.70 6.68L55.70 6.68Q55.90 6.62 56.11 6.62L56.11 6.62L56.11 6.62Q56.57 6.62 56.93 6.80L56.93 6.80L56.93 6.80Q57.29 6.98 57.54 7.40L57.54 7.40L57.54 7.40Q57.78 7.81 57.91 8.50L57.91 8.50L57.91 8.50Q58.04 9.19 58.04 10.21L58.04 10.21L58.04 10.21Q58.04 11.20 57.87 11.93L57.87 11.93L57.87 11.93Q57.69 12.66 57.40 13.17L57.40 13.17L57.40 13.17Q57.11 13.69 56.75 14.01L56.75 14.01L56.75 14.01Q56.39 14.33 56.02 14.52L56.02 14.52L56.02 14.52Q55.65 14.70 55.31 14.78L55.31 14.78L55.31 14.78Q54.97 14.85 54.72 14.85L54.72 14.85L54.65 14.57L54.65 14.57Q54.96 14.50 55.20 14.29L55.20 14.29L55.20 14.29Q55.44 14.09 55.60 13.62L55.60 13.62L55.60 13.62Q55.77 13.15 55.85 12.36L55.85 12.36L55.85 12.36Q55.94 11.57 55.94 10.32L55.94 10.32L55.94 10.32Q55.94 9.45 55.86 8.94L55.86 8.94L55.86 8.94Q55.78 8.42 55.65 8.15L55.65 8.15L55.65 8.15Q55.53 7.88 55.37 7.80L55.37 7.80L55.37 7.80Q55.21 7.71 55.04 7.71L55.04 7.71L55.04 7.71Q54.84 7.71 54.69 7.82L54.69 7.82L54.69 7.82Q54.54 7.92 54.43 8.06L54.43 8.06L54.43 8.06Q54.32 8.20 54.24 8.33L54.24 8.33L54.24 8.33Q54.16 8.47 54.11 8.54L54.11 8.54L54.11 13.10L54.11 13.10Q54.11 13.19 54.08 13.32L54.08 13.32L54.08 13.32Q54.05 13.45 53.95 13.56L53.95 13.56L53.95 13.56Q53.84 13.67 53.63 13.75L53.63 13.75L53.63 13.75Q53.42 13.83 53.06 13.83L53.06 13.83L53.06 13.83Q52.70 13.83 52.49 13.74L52.49 13.74L52.49 13.74Q52.27 13.66 52.17 13.54L52.17 13.54L52.17 13.54Q52.06 13.43 52.04 13.30L52.04 13.30L52.04 13.30Q52.01 13.18 52.01 13.10L52.01 13.10L52.01 4.29L52.01 4.29Q52.01 4.09 51.92 3.94L51.92 3.94L51.92 3.94Q51.82 3.79 51.60 3.79L51.60 3.79L51.60 3.79Q51.49 3.79 51.40 3.83L51.40 3.83L51.40 3.83Q51.32 3.87 51.22 3.94L51.22 3.94L51.08 3.78L51.08 3.78Q51.24 3.65 51.43 3.52L51.43 3.52L51.43 3.52Q51.63 3.40 51.85 3.30L51.85 3.30L51.85 3.30Q52.08 3.21 52.34 3.14L52.34 3.14L52.34 3.14Q52.60 3.08 52.89 3.08L52.89 3.08L52.89 3.08Q53.33 3.08 53.58 3.20L53.58 3.20L53.58 3.20Q53.83 3.32 53.94 3.50L53.94 3.50L53.94 3.50Q54.06 3.67 54.08 3.87L54.08 3.87L54.08 3.87Q54.11 4.06 54.11 4.21L54.11 4.21ZM62.54 11.85L62.54 10.18L62.54 10.18Q62.54 10.01 62.43 9.92L62.43 9.92L62.43 9.92Q62.32 9.83 62.15 9.83L62.15 9.83L62.15 9.83Q61.91 9.83 61.69 9.94L61.69 9.94L61.69 9.94Q61.48 10.05 61.31 10.26L61.31 10.26L61.31 10.26Q61.15 10.47 61.05 10.78L61.05 10.78L61.05 10.78Q60.96 11.09 60.96 11.50L60.96 11.50L60.96 11.50Q60.96 11.90 61.01 12.16L61.01 12.16L61.01 12.16Q61.07 12.42 61.17 12.57L61.17 12.57L61.17 12.57Q61.27 12.73 61.40 12.79L61.40 12.79L61.40 12.79Q61.53 12.85 61.67 12.85L61.67 12.85L61.67 12.85Q61.85 12.85 62.01 12.76L62.01 12.76L62.01 12.76Q62.17 12.67 62.28 12.52L62.28 12.52L62.28 12.52Q62.40 12.38 62.47 12.20L62.47 12.20L62.47 12.20Q62.54 12.02 62.54 11.85L62.54 11.85ZM61.45 7.18L61.45 7.18L61.45 7.18Q61.22 7.18 61.02 7.24L61.02 7.24L61.02 7.24Q60.82 7.29 60.68 7.38L60.68 7.38L60.68 7.38Q60.53 7.46 60.45 7.56L60.45 7.56L60.45 7.56Q60.37 7.66 60.37 7.75L60.37 7.75L60.37 7.75Q60.37 7.85 60.47 7.89L60.47 7.89L60.47 7.89Q60.58 7.94 60.71 7.99L60.71 7.99L60.71 7.99Q60.84 8.05 60.95 8.16L60.95 8.16L60.95 8.16Q61.05 8.26 61.05 8.48L61.05 8.48L61.05 8.48Q61.05 8.63 60.99 8.75L60.99 8.75L60.99 8.75Q60.94 8.87 60.84 8.96L60.84 8.96L60.84 8.96Q60.74 9.05 60.60 9.10L60.60 9.10L60.60 9.10Q60.47 9.15 60.33 9.15L60.33 9.15L60.33 9.15Q59.94 9.15 59.71 8.89L59.71 8.89L59.71 8.89Q59.47 8.63 59.47 8.20L59.47 8.20L59.47 8.20Q59.47 7.79 59.69 7.49L59.69 7.49L59.69 7.49Q59.91 7.19 60.26 7L60.26 7L60.26 7Q60.61 6.81 61.06 6.72L61.06 6.72L61.06 6.72Q61.50 6.62 61.95 6.62L61.95 6.62L61.95 6.62Q62.48 6.62 62.97 6.74L62.97 6.74L62.97 6.74Q63.45 6.86 63.82 7.11L63.82 7.11L63.82 7.11Q64.20 7.36 64.42 7.75L64.42 7.75L64.42 7.75Q64.64 8.14 64.64 8.70L64.64 8.70L64.64 12.56L64.64 12.56Q64.64 12.62 64.65 12.69L64.65 12.69L64.65 12.69Q64.65 12.77 64.68 12.83L64.68 12.83L64.68 12.83Q64.71 12.89 64.76 12.93L64.76 12.93L64.76 12.93Q64.82 12.97 64.92 12.97L64.92 12.97L64.92 12.97Q65.04 12.97 65.15 12.88L65.15 12.88L65.15 12.88Q65.26 12.79 65.34 12.69L65.34 12.69L65.51 12.84L65.51 12.84Q65.41 12.98 65.26 13.15L65.26 13.15L65.26 13.15Q65.12 13.32 64.91 13.47L64.91 13.47L64.91 13.47Q64.71 13.62 64.44 13.73L64.44 13.73L64.44 13.73Q64.16 13.83 63.81 13.83L63.81 13.83L63.81 13.83Q63.38 13.83 63.05 13.57L63.05 13.57L63.05 13.57Q62.71 13.32 62.61 12.78L62.61 12.78L62.61 12.78Q62.39 13.08 62.16 13.28L62.16 13.28L62.16 13.28Q61.92 13.47 61.67 13.60L61.67 13.60L61.67 13.60Q61.43 13.72 61.18 13.77L61.18 13.77L61.18 13.77Q60.93 13.83 60.68 13.83L60.68 13.83L60.68 13.83Q60.35 13.83 60.04 13.73L60.04 13.73L60.04 13.73Q59.73 13.62 59.49 13.40L59.49 13.40L59.49 13.40Q59.25 13.18 59.10 12.82L59.10 12.82L59.10 12.82Q58.95 12.47 58.95 11.96L58.95 11.96L58.95 11.96Q58.95 11.33 59.20 10.94L59.20 10.94L59.20 10.94Q59.45 10.54 59.85 10.27L59.85 10.27L59.85 10.27Q60.25 10.00 60.75 9.81L60.75 9.81L60.75 9.81Q61.26 9.62 61.80 9.41L61.80 9.41L61.80 9.41Q62.19 9.25 62.37 8.94L62.37 8.94L62.37 8.94Q62.56 8.63 62.56 8.30L62.56 8.30L62.56 8.30Q62.56 7.79 62.26 7.49L62.26 7.49L62.26 7.49Q61.96 7.18 61.45 7.18ZM68.61 8.07L68.61 8.07L68.61 8.07Q68.87 7.67 69.17 7.35L69.17 7.35L69.17 7.35Q69.29 7.21 69.43 7.08L69.43 7.08L69.43 7.08Q69.58 6.95 69.73 6.85L69.73 6.85L69.73 6.85Q69.88 6.75 70.05 6.69L70.05 6.69L70.05 6.69Q70.21 6.62 70.38 6.62L70.38 6.62L70.38 6.62Q70.72 6.62 70.92 6.83L70.92 6.83L70.92 6.83Q71.12 7.04 71.12 7.42L71.12 7.42L71.12 7.42Q71.12 7.65 71.08 7.86L71.08 7.86L71.08 7.86Q71.05 8.08 70.94 8.39L70.94 8.39L70.75 8.39L70.75 8.39Q70.70 8.18 70.55 8.04L70.55 8.04L70.55 8.04Q70.40 7.90 70.12 7.90L70.12 7.90L70.12 7.90Q69.90 7.90 69.70 7.97L69.70 7.97L69.70 7.97Q69.49 8.05 69.30 8.17L69.30 8.17L69.30 8.17Q69.10 8.29 68.93 8.42L68.93 8.42L68.93 8.42Q68.76 8.56 68.61 8.68L68.61 8.68L68.61 13.12L68.61 13.12Q68.61 13.21 68.58 13.33L68.58 13.33L68.58 13.33Q68.56 13.45 68.45 13.56L68.45 13.56L68.45 13.56Q68.35 13.67 68.14 13.75L68.14 13.75L68.14 13.75Q67.93 13.83 67.57 13.83L67.57 13.83L67.57 13.83Q67.20 13.83 67.00 13.74L67.00 13.74L67.00 13.74Q66.79 13.66 66.68 13.54L66.68 13.54L66.68 13.54Q66.57 13.43 66.54 13.30L66.54 13.30L66.54 13.30Q66.51 13.18 66.51 13.10L66.51 13.10L66.51 7.83L66.51 7.83Q66.51 7.63 66.42 7.48L66.42 7.48L66.42 7.48Q66.33 7.33 66.11 7.33L66.11 7.33L66.11 7.33Q65.99 7.33 65.91 7.38L65.91 7.38L65.91 7.38Q65.83 7.42 65.73 7.49L65.73 7.49L65.59 7.32L65.59 7.32Q65.75 7.19 65.94 7.06L65.94 7.06L65.94 7.06Q66.14 6.94 66.36 6.84L66.36 6.84L66.36 6.84Q66.59 6.75 66.85 6.69L66.85 6.69L66.85 6.69Q67.11 6.62 67.40 6.62L67.40 6.62L67.40 6.62Q67.69 6.62 67.90 6.70L67.90 6.70L67.90 6.70Q68.11 6.78 68.24 6.91L68.24 6.91L68.24 6.91Q68.37 7.03 68.45 7.19L68.45 7.19L68.45 7.19Q68.52 7.35 68.56 7.51L68.56 7.51L68.56 7.51Q68.60 7.67 68.61 7.82L68.61 7.82L68.61 7.82Q68.61 7.96 68.61 8.07ZM80.00 4.45L80.00 7.57L80.00 7.57Q80.61 6.70 81.11 6.02L81.11 6.02L81.11 6.02Q81.61 5.35 82.04 4.84L82.04 4.84L82.04 4.84Q82.46 4.34 82.83 4.00L82.83 4.00L82.83 4.00Q83.19 3.66 83.54 3.45L83.54 3.45L83.54 3.45Q83.88 3.24 84.23 3.15L84.23 3.15L84.23 3.15Q84.57 3.06 84.94 3.06L84.94 3.06L84.94 3.06Q85.84 3.06 85.84 3.64L85.84 3.64L85.84 3.64Q85.84 3.71 85.83 3.81L85.83 3.81L85.83 3.81Q85.81 3.92 85.77 4.01L85.77 4.01L85.77 4.01Q85.74 4.11 85.67 4.18L85.67 4.18L85.67 4.18Q85.60 4.25 85.50 4.25L85.50 4.25L85.50 4.25Q85.42 4.25 85.32 4.17L85.32 4.17L85.32 4.17Q85.22 4.09 85.09 4.00L85.09 4.00L85.09 4.00Q84.96 3.91 84.79 3.83L84.79 3.83L84.79 3.83Q84.62 3.75 84.41 3.75L84.41 3.75L84.41 3.75Q84.18 3.75 83.88 3.94L83.88 3.94L83.88 3.94Q83.58 4.14 83.24 4.46L83.24 4.46L83.24 4.46Q82.89 4.79 82.52 5.23L82.52 5.23L82.52 5.23Q82.15 5.66 81.76 6.15L81.76 6.15L81.76 6.15Q82.79 8.48 83.57 10.20L83.57 10.20L83.57 10.20Q84.36 11.92 85.00 13.04L85.00 13.04L85.00 13.04Q85.65 14.16 86.19 14.71L86.19 14.71L86.19 14.71Q86.74 15.26 87.29 15.26L87.29 15.26L87.29 15.26Q87.39 15.26 87.49 15.23L87.49 15.23L87.49 15.23Q87.58 15.20 87.66 15.17L87.66 15.17L87.66 15.17Q87.75 15.13 87.83 15.08L87.83 15.08L87.98 15.35L87.98 15.35Q87.86 15.42 87.66 15.51L87.66 15.51L87.66 15.51Q87.46 15.61 87.18 15.69L87.18 15.69L87.18 15.69Q86.91 15.78 86.57 15.84L86.57 15.84L86.57 15.84Q86.24 15.90 85.85 15.90L85.85 15.90L85.85 15.90Q85.33 15.90 84.88 15.74L84.88 15.74L84.88 15.74Q84.42 15.57 84.00 15.21L84.00 15.21L84.00 15.21Q83.57 14.84 83.16 14.25L83.16 14.25L83.16 14.25Q82.74 13.66 82.29 12.80L82.29 12.80L82.29 12.80Q81.85 11.95 81.35 10.81L81.35 10.81L81.35 10.81Q80.85 9.68 80.26 8.22L80.26 8.22L80.00 8.61L80.00 12.82L80.00 12.82Q80.00 13.35 79.72 13.59L79.72 13.59L79.72 13.59Q79.45 13.83 78.88 13.83L78.88 13.83L78.88 13.83Q78.31 13.83 78.03 13.59L78.03 13.59L78.03 13.59Q77.76 13.35 77.76 12.82L77.76 12.82L77.76 4.59L77.76 4.59Q77.76 4.44 77.72 4.35L77.72 4.35L77.72 4.35Q77.69 4.27 77.63 4.21L77.63 4.21L77.63 4.21Q77.57 4.16 77.48 4.15L77.48 4.15L77.48 4.15Q77.40 4.13 77.29 4.13L77.29 4.13L77.29 4.13Q77.14 4.13 76.92 4.18L76.92 4.18L76.92 4.18Q76.70 4.22 76.45 4.32L76.45 4.32L76.45 4.32Q76.21 4.42 75.96 4.56L75.96 4.56L75.96 4.56Q75.71 4.70 75.51 4.87L75.51 4.87L75.51 4.87Q75.32 5.05 75.20 5.27L75.20 5.27L75.20 5.27Q75.07 5.49 75.07 5.74L75.07 5.74L75.07 5.74Q75.07 5.96 75.13 6.09L75.13 6.09L75.13 6.09Q75.19 6.22 75.26 6.29L75.26 6.29L75.26 6.29Q75.34 6.35 75.42 6.37L75.42 6.37L75.42 6.37Q75.50 6.38 75.53 6.38L75.53 6.38L75.53 6.38Q75.70 6.38 75.81 6.33L75.81 6.33L75.81 6.33Q75.92 6.27 76.01 6.20L76.01 6.20L76.01 6.20Q76.10 6.14 76.18 6.08L76.18 6.08L76.18 6.08Q76.25 6.02 76.36 6.02L76.36 6.02L76.36 6.02Q76.44 6.02 76.53 6.06L76.53 6.06L76.53 6.06Q76.62 6.10 76.70 6.18L76.70 6.18L76.70 6.18Q76.78 6.26 76.84 6.40L76.84 6.40L76.84 6.40Q76.89 6.53 76.89 6.72L76.89 6.72L76.89 6.72Q76.89 6.99 76.78 7.19L76.78 7.19L76.78 7.19Q76.68 7.39 76.51 7.52L76.51 7.52L76.51 7.52Q76.34 7.66 76.13 7.72L76.13 7.72L76.13 7.72Q75.91 7.79 75.70 7.79L75.70 7.79L75.70 7.79Q75.37 7.79 75.11 7.67L75.11 7.67L75.11 7.67Q74.85 7.56 74.66 7.36L74.66 7.36L74.66 7.36Q74.48 7.16 74.38 6.90L74.38 6.90L74.38 6.90Q74.29 6.63 74.29 6.33L74.29 6.33L74.29 6.33Q74.29 5.86 74.46 5.47L74.46 5.47L74.46 5.47Q74.63 5.07 74.93 4.76L74.93 4.76L74.93 4.76Q75.22 4.44 75.62 4.21L75.62 4.21L75.62 4.21Q76.02 3.97 76.49 3.81L76.49 3.81L76.49 3.81Q76.95 3.66 77.46 3.58L77.46 3.58L77.46 3.58Q77.96 3.50 78.47 3.50L78.47 3.50L78.47 3.50Q79.03 3.50 79.34 3.61L79.34 3.61L79.34 3.61Q79.65 3.71 79.80 3.86L79.80 3.86L79.80 3.86Q79.95 4.01 79.97 4.18L79.97 4.18L79.97 4.18Q80.00 4.34 80.00 4.45L80.00 4.45ZM89.67 11.85L89.67 10.18L89.67 10.18Q89.67 10.01 89.56 9.92L89.56 9.92L89.56 9.92Q89.45 9.83 89.28 9.83L89.28 9.83L89.28 9.83Q89.04 9.83 88.82 9.94L88.82 9.94L88.82 9.94Q88.61 10.05 88.44 10.26L88.44 10.26L88.44 10.26Q88.28 10.47 88.18 10.78L88.18 10.78L88.18 10.78Q88.09 11.09 88.09 11.50L88.09 11.50L88.09 11.50Q88.09 11.90 88.15 12.16L88.15 12.16L88.15 12.16Q88.20 12.42 88.30 12.57L88.30 12.57L88.30 12.57Q88.40 12.73 88.53 12.79L88.53 12.79L88.53 12.79Q88.66 12.85 88.81 12.85L88.81 12.85L88.81 12.85Q88.98 12.85 89.14 12.76L89.14 12.76L89.14 12.76Q89.30 12.67 89.41 12.52L89.41 12.52L89.41 12.52Q89.53 12.38 89.60 12.20L89.60 12.20L89.60 12.20Q89.67 12.02 89.67 11.85L89.67 11.85ZM88.58 7.18L88.58 7.18L88.58 7.18Q88.35 7.18 88.15 7.24L88.15 7.24L88.15 7.24Q87.95 7.29 87.81 7.38L87.81 7.38L87.81 7.38Q87.66 7.46 87.58 7.56L87.58 7.56L87.58 7.56Q87.50 7.66 87.50 7.75L87.50 7.75L87.50 7.75Q87.50 7.85 87.61 7.89L87.61 7.89L87.61 7.89Q87.71 7.94 87.84 7.99L87.84 7.99L87.84 7.99Q87.97 8.05 88.08 8.16L88.08 8.16L88.08 8.16Q88.18 8.26 88.18 8.48L88.18 8.48L88.18 8.48Q88.18 8.63 88.13 8.75L88.13 8.75L88.13 8.75Q88.07 8.87 87.97 8.96L87.97 8.96L87.97 8.96Q87.87 9.05 87.74 9.10L87.74 9.10L87.74 9.10Q87.60 9.15 87.46 9.15L87.46 9.15L87.46 9.15Q87.08 9.15 86.84 8.89L86.84 8.89L86.84 8.89Q86.60 8.63 86.60 8.20L86.60 8.20L86.60 8.20Q86.60 7.79 86.82 7.49L86.82 7.49L86.82 7.49Q87.04 7.19 87.39 7L87.39 7L87.39 7Q87.75 6.81 88.19 6.72L88.19 6.72L88.19 6.72Q88.63 6.62 89.08 6.62L89.08 6.62L89.08 6.62Q89.61 6.62 90.10 6.74L90.10 6.74L90.10 6.74Q90.58 6.86 90.96 7.11L90.96 7.11L90.96 7.11Q91.33 7.36 91.55 7.75L91.55 7.75L91.55 7.75Q91.77 8.14 91.77 8.70L91.77 8.70L91.77 12.56L91.77 12.56Q91.77 12.62 91.78 12.69L91.78 12.69L91.78 12.69Q91.79 12.77 91.81 12.83L91.81 12.83L91.81 12.83Q91.84 12.89 91.90 12.93L91.90 12.93L91.90 12.93Q91.95 12.97 92.05 12.97L92.05 12.97L92.05 12.97Q92.18 12.97 92.28 12.88L92.28 12.88L92.28 12.88Q92.39 12.79 92.47 12.69L92.47 12.69L92.64 12.84L92.64 12.84Q92.54 12.98 92.39 13.15L92.39 13.15L92.39 13.15Q92.25 13.32 92.05 13.47L92.05 13.47L92.05 13.47Q91.84 13.62 91.57 13.73L91.57 13.73L91.57 13.73Q91.29 13.83 90.95 13.83L90.95 13.83L90.95 13.83Q90.51 13.83 90.18 13.57L90.18 13.57L90.18 13.57Q89.84 13.32 89.74 12.78L89.74 12.78L89.74 12.78Q89.52 13.08 89.29 13.28L89.29 13.28L89.29 13.28Q89.05 13.47 88.81 13.60L88.81 13.60L88.81 13.60Q88.56 13.72 88.31 13.77L88.31 13.77L88.31 13.77Q88.06 13.83 87.81 13.83L87.81 13.83L87.81 13.83Q87.48 13.83 87.17 13.73L87.17 13.73L87.17 13.73Q86.86 13.62 86.62 13.40L86.62 13.40L86.62 13.40Q86.38 13.18 86.23 12.82L86.23 12.82L86.23 12.82Q86.08 12.47 86.08 11.96L86.08 11.96L86.08 11.96Q86.08 11.33 86.33 10.94L86.33 10.94L86.33 10.94Q86.58 10.54 86.98 10.27L86.98 10.27L86.98 10.27Q87.38 10.00 87.89 9.81L87.89 9.81L87.89 9.81Q88.40 9.62 88.93 9.41L88.93 9.41L88.93 9.41Q89.33 9.25 89.51 8.94L89.51 8.94L89.51 8.94Q89.69 8.63 89.69 8.30L89.69 8.30L89.69 8.30Q89.69 7.79 89.39 7.49L89.39 7.49L89.39 7.49Q89.09 7.18 88.58 7.18Z"></path></g><!----><!----></svg>